<svg width="48" height="48" fill="none" xmlns="http://www.w3.org/2000/svg"><path d="M39.469 21.281a.376.376 0 0 0-.375-.375H36.28a.376.376 0 0 0-.375.375c0 6.577-5.33 11.907-11.906 11.907-6.577 0-11.906-5.33-11.906-11.907a.376.376 0 0 0-.375-.375H8.906a.376.376 0 0 0-.375.375c0 7.908 5.935 14.433 13.594 15.357v4.8h-6.81c-.643 0-1.159.67-1.159 1.5v1.687c0 .206.131.375.29.375h19.107c.16 0 .29-.169.29-.375v-1.688c0-.83-.515-1.5-1.157-1.5h-6.998v-4.776c7.748-.844 13.78-7.406 13.78-15.38zM24 29.25c4.402 0 7.969-3.525 7.969-7.875v-10.5C31.969 6.525 28.402 3 24 3s-7.969 3.525-7.969 7.875v10.5c0 4.35 3.567 7.875 7.969 7.875zm-4.406-18.375c0-2.372 1.964-4.313 4.406-4.313 2.442 0 4.406 1.941 4.406 4.313v10.5c0 2.372-1.964 4.313-4.406 4.313-2.442 0-4.406-1.941-4.406-4.313v-10.5z" fill="#fff"/></svg>