<svg width="48" height="48" fill="none" xmlns="http://www.w3.org/2000/svg"><g fill-rule="evenodd" clip-rule="evenodd" fill="#fff"><path d="M27.6 9.6H10.8a7.2 7.2 0 0 0-7.2 7.2v14.4a7.2 7.2 0 0 0 7.2 7.2h16.8a7.2 7.2 0 0 0 7.2-7.2V16.8a7.2 7.2 0 0 0-7.2-7.2zM8.4 16.8a2.4 2.4 0 0 1 2.4-2.4h16.8a2.4 2.4 0 0 1 2.4 2.4v14.4a2.4 2.4 0 0 1-2.4 2.4H10.8a2.4 2.4 0 0 1-2.4-2.4V16.8z"/><path d="m40.642 12.422-8.323 5.715a2.4 2.4 0 0 0-1.042 1.956l-.077 7.716a2.4 2.4 0 0 0 1.042 2.001l8.4 5.768A2.4 2.4 0 0 0 44.4 33.6V14.4a2.4 2.4 0 0 0-3.758-1.978zM39.6 29.04l-3.588-2.462.053-5.192L39.6 18.96v10.08z"/></g></svg>