<svg width="52" height="52" fill="none" xmlns="http://www.w3.org/2000/svg"><path fill="#fff" d="M0 0h52v52H0z"/><path d="M4.02 27.335C6.13 10.175 19.26 8.345 21.079 8.176v-4.39A1.78 1.78 0 0 1 22.851 2c.4 0 .787.134 1.1.38l12.166 9.52a1.785 1.785 0 0 1 0 2.812L23.95 24.231a1.772 1.772 0 0 1-2.494-.302 1.792 1.792 0 0 1-.379-1.104v-4.342C14.693 18.624 10.492 24.04 8.08 28.6a2.15 2.15 0 0 1-2.574 1.059 2.118 2.118 0 0 1-1.484-2.324zm43.96-2.643a2.116 2.116 0 0 0-1.498-2.322 2.138 2.138 0 0 0-2.561 1.059c-2.404 4.558-6.605 9.974-12.995 10.118v-4.37a1.78 1.78 0 0 0-1.772-1.786c-.4 0-.787.134-1.1.38L15.89 37.29a1.785 1.785 0 0 0 0 2.812l12.164 9.52c.773.606 1.89.472 2.494-.303.246-.315.38-.703.38-1.104v-4.39c1.813-.143 14.948-1.967 17.05-19.132z" stroke="#FF6667" stroke-width="3.5"/></svg>