<svg width="52" height="52" fill="none" xmlns="http://www.w3.org/2000/svg"><path fill="#fff" d="M0 0h52v52H0z"/><path fill-rule="evenodd" clip-rule="evenodd" d="M37.6 5.945c-1.982 1.158-2.048 1.34-1.308 3.632.733 2.267.647 2.557-1.422 4.78-1.842 1.978-2.576 2.222-4.472 1.491-1.779-.686-2.27-1.435-2.279-3.473-.007-1.69.509-3.169 1.473-4.23 1.303-1.435 1.307-1.883.032-3.669-1.828-2.561-3.676-3.078-6.484-1.815-2.637 1.187-2.697 3.382-.143 5.258 3.467 2.546 3.166 7.321-.553 8.766-1.942.755-2.537.665-3.66-.56-.737-.804-1.134-2.238-.882-3.185.642-2.42-.855-4.19-3.998-4.727-3.042-.52-5.36 1.451-5.604 4.765-.183 2.492.96 3.43 4.143 3.394 1.694-.018 2.987.544 4.296 1.87 2.584 2.612 1.452 4.838-2.895 5.691-2.896.569-3.704.434-5.038-.84-3.608-3.441-8.533-.679-7.716 4.327.622 3.806 5.884 4.875 8.176 1.66.695-.974 2.529-1.768 4.469-1.933 3.108-.265 3.34-.157 4.178 1.958 1.114 2.806-.33 4.76-4.494 6.081-3.688 1.17-4.865 3.632-2.885 6.034 1.93 2.344 3.619 2.733 6.404 1.478 2.025-.912 2.258-1.33 2.034-3.655-.346-3.607 1.231-5.043 4.543-4.137 3.538.967 4.063 2.523 2.524 7.481-.924 2.978-1.01 4.474-.303 5.255 1.5 1.654 4.998 2.372 6.458 1.326 1.86-1.333 1.687-5.09-.302-6.55-.921-.677-1.76-2.41-1.862-3.85-.166-2.326.128-2.794 2.63-4.184l2.819-1.565 1.529 3.097c2.18 4.415 5.786 5.118 8.01 1.563 1.91-3.05-1.62-7.39-4.598-5.65-2.049 1.196-4.038-1.043-3.6-4.05.38-2.597.648-2.821 3.565-2.986 1.735-.098 3.843.27 4.685.819.841.548 2.364.8 3.383.559 3.93-.926 3.109-7.818-1.068-8.96-1.981-.542-2.537-.28-3.47 1.627-1.273 2.605-2.38 3.235-5.514 3.141-1.515-.044-2.456-.566-2.935-1.63-.943-2.09 1.637-4.824 5.442-5.77 3.294-.819 4.916-4.05 3.473-6.916-1.262-2.507-4.17-3.243-6.78-1.718zm4.09 4.086c-.177.665-.636 1.124-1.02 1.019-.383-.105-.997-.857-1.365-1.671-.558-1.237-.39-1.405 1.02-1.02.969.266 1.549.977 1.364 1.672zm-27.322 2.115c-.452.63-.862 1.296-.911 1.481-.05.186-.626.19-1.282.011-1.437-.392-1.286-1.36.362-2.323 1.724-1.007 2.8-.519 1.83.831zm33.601 9.788c-.354.938-1.394.453-1.46-.68-.033-.58.33-.793.807-.472.478.321.771.84.653 1.152zm-14.605.634c1.227 1.934.421 6.442-1.528 8.545-.652.704-2.502 1.354-4.112 1.445-3.686.208-6.46-1.91-7.235-5.526-.94-4.385.364-6.483 5.08-8.175 2.508-.9 5.89.71 7.795 3.711zm-27.26 4.309c.362.468.036.661-.76.451-.775-.204-1.236-.965-1.037-1.712.196-.739.538-.942.759-.45.22.49.688 1.26 1.037 1.71zm36.42 8.901a.824.824 0 0 1-1.008.59.84.84 0 0 1-.58-1.024.824.824 0 0 1 1.008-.59.84.84 0 0 1 .58 1.024zm-26.806 3.057c.154.521-.355 1.014-1.13 1.096-1.678.176-2.353-.709-1.303-1.71.947-.903 2.07-.62 2.433.614zm14.639 7.457a.824.824 0 0 1-1.01.59.84.84 0 0 1-.58-1.025.824.824 0 0 1 1.009-.589.84.84 0 0 1 .58 1.024z" fill="#FF6667"/></svg>