<svg width="52" height="52" fill="none" xmlns="http://www.w3.org/2000/svg"><path fill="#fff" d="M0 0h52v52H0z"/><path d="M26.432.592c-7.758 0-14.082 2.624-18.253 7.954C4.008 13.876 2 21.671 2 31.842a1.748 1.748 0 0 0 1.06 1.564c.847.145 1.458 0 1.994-.5 1.503 9.287 9.853 17.686 20.242 17.686 5.163 0 9.73-1.556 13.192-4.546 2.367-2.044 4.189-4.736 5.398-7.972a1.74 1.74 0 0 0 1.544-.71c2.815-3.94 5.434-7.382 5.434-14.045 0-4.62-2.114-7.949-4.954-9.18-1.737-3.894-3.926-7.245-6.996-9.641C35.696 1.986 31.562.592 26.432.592zm0 3.409c4.529 0 7.782 1.144 10.387 3.178 2.605 2.033 4.597 5.027 6.232 8.842.203.486.644.865 1.154.994 1.235.31 3.25 2.327 3.25 6.304 0 4.08-.992 6.375-2.54 8.771l-.905-4.563c-.212-1.079-1.642-1.7-2.575-1.119-.844.515-1.536.938-2.272 1.35-.158-1.319-.231-2.714-.231-5.008a1.741 1.741 0 0 0-.874-1.5 1.741 1.741 0 0 0-1.736.044c-3.733 2.333-6.609 3.408-11.133 4.368l.64-3.16a1.742 1.742 0 0 0-.629-1.666 1.742 1.742 0 0 0-1.769-.199l-11.026 5.274-.195-1.172a1.742 1.742 0 0 0-1.165-1.349 1.742 1.742 0 0 0-1.73.426L5.64 27.49c.52-7.429 2.3-13.078 5.238-16.832C14.377 6.188 19.417 4 26.432 4zm-4.617 21.164-.461 2.362c-.212 1.082.885 2.199 1.97 2.006 5.151-.936 8.62-1.987 12.252-3.906.043 1.591.184 3.054.515 4.51.215.853.625 1.408 1.243 1.687.663.218 1.297-.02 1.846-.248.705-.318 1.434-.727 1.971-1.03l.533 2.716c-.856 4.514-2.757 7.898-5.433 10.21-2.788 2.408-6.46 3.71-10.956 3.71-9.482 0-17.164-9.051-17.063-17.47l1.154-1.155c.297 1.52 1.644 1.74 2.433 1.403l9.996-4.795zm-4.527 7.156c-1.035.02-2.12.406-2.983.835-.87.353-1.303 1.507-.881 2.345.421.838 1.606 1.178 2.408.69.466-.233 1.028-.424 1.402-.46.375-.038.438-.025.604.141.611.7 1.826.743 2.485.089.66-.655.625-1.87-.07-2.486-.849-.849-1.991-1.159-2.965-1.154zm13.05 1.154c-.695.616-.73 1.831-.07 2.486.66.654 1.874.61 2.485-.089.166-.166.23-.18.603-.142.375.038.937.229 1.403.462.802.487 1.987.147 2.408-.691.422-.838-.012-1.992-.88-2.345-.67-.335-1.53-.713-2.575-.817-1.245-.04-2.651.44-3.374 1.136zm-2.84 5.096c-.436.04-.852.255-1.137.586-.066.066-.68.355-1.35.355s-1.283-.29-1.35-.355a1.732 1.732 0 0 0-1.402-.515 1.745 1.745 0 0 0-1.428 1.135 1.744 1.744 0 0 0 .416 1.777c1.07 1.07 2.445 1.367 3.764 1.367 1.32 0 2.694-.297 3.765-1.367.54-.47.729-1.3.447-1.957a1.752 1.752 0 0 0-1.726-1.026z" fill="#FF6667"/></svg>