<svg width="52" height="52" fill="none" xmlns="http://www.w3.org/2000/svg"><path fill="#fff" d="M0 0h52v52H0z"/><mask id="a" maskUnits="userSpaceOnUse" x="0" y="2.183" width="52" height="47" fill="#000"><path fill="#fff" d="M0 2.183h52v47H0z"/><path d="M22.27 24c-.405.233-.825.45-1.262.65-.47.215-.96.412-1.466.591a9.6 9.6 0 0 1 .508-.043 9.127 9.127 0 0 1 2.647.26c-.143-.481-.286-.968-.424-1.458h-.003zm-1.873 16.698c-2.369.827-4.56.623-6.565-.614l-.046-.031c-1.916-1.197-3.63-3.339-5.142-6.424-.206-.419-.052-.936.34-1.156a.761.761 0 0 1 .34-.096c3.286-.148 5.896.376 7.83 1.566 2.008 1.237 3.268 3.16 3.782 5.763.084.432-.153.858-.537.992h-.002zm-5.759-2.1c1.386.856 2.9 1.083 4.537.682-.494-1.712-1.433-2.998-2.82-3.852-1.408-.867-3.29-1.32-5.64-1.357 1.195 2.133 2.489 3.634 3.883 4.503l.04.025zm24.58-10.474c.425-.136.875.121 1.003.574.128.454-.113.934-.538 1.07l-7.121 2.3-1.151 3.38c2.32 1.627 4.658 2.657 7.012 3.094 2.237.415 4.499.296 6.782-.358a7.632 7.632 0 0 0-1.479-2.106l-.044-.04c-.821-.814-1.844-1.446-3.07-1.923a.817.817 0 0 1-.4-.338c-.241-.397-.136-.93.236-1.188l1.067-.732c3.09-2.095 6.41-4.349 7.695-9.016-.866-.155-1.95-.135-3.081.058-1.403.238-2.865.742-4.075 1.506a.778.778 0 0 1-.48.114c-.442-.042-.767-.46-.73-.93l.1-1.113c.39-4.345.944-10.544-.864-15.007-4.077 2.185-7.376 7.315-9.69 10.913l-.584.905a.803.803 0 0 1-.408.339c-.42.156-.877-.081-1.024-.53-.464-1.408-1.284-2.793-2.218-3.938-.754-.927-1.571-1.682-2.325-2.157-1.821 4.458-.63 8.462.477 12.185l.371 1.278a.907.907 0 0 1-.008.553c-.15.446-.611.677-1.027.518-1.229-.473-2.396-.69-3.518-.63a6.892 6.892 0 0 0-2.453.603c1.359 2.068 3.02 3.708 4.984 4.917 2.07 1.28 4.486 2.09 7.241 2.431l1.151-3.383-4.078-6.638c-.244-.397-.139-.93.233-1.19.372-.26.872-.148 1.115.249l3.417 5.56 4.883-14.343c.151-.446.613-.674 1.031-.513.418.161.633.654.481 1.1l-4.885 14.346 5.97-1.927.001.007zm-8.37 8.98-3.58 10.514c-.152.446-.614.675-1.032.513-.418-.16-.632-.654-.481-1.1l3.58-10.517c-2.824-.394-5.321-1.259-7.487-2.598-2.364-1.461-4.328-3.475-5.888-6.045a13.698 13.698 0 0 1-2.802 1.483c-2.05.79-4.215 1.02-6.492.686-.44-.063-.747-.496-.689-.966l.009-.054c.222-1.196.657-2.236 1.298-3.136.346-.491.754-.937 1.22-1.347-2.848-1.264-5.824-2.756-7.441-6.863-.168-.428.012-.918.403-1.111.853-.484 2.11-.768 3.453-.793.762-.014 1.56.056 2.333.217-.91-3.524-2.033-8.332-.886-12.203.132-.453.586-.704 1.01-.56 3.694.905 7.006 4.317 9.394 6.9.255-.795.597-1.568.99-2.265.701-1.246 1.581-2.281 2.417-2.82a.77.77 0 0 1 1.06.22c1.139 1.6 1.714 3.252 1.964 4.885.044.29.078.58.105.867a.754.754 0 0 1 .437.043c1.157.477 2.478 1.57 3.63 2.977.732.894 1.402 1.93 1.923 3.02 2.546-3.954 6.175-9.436 10.864-11.509.41-.181.88.025 1.05.462 2.315 4.799 1.8 11.449 1.376 16.2a13.48 13.48 0 0 1 3.295-.998c1.729-.294 3.4-.227 4.572.197.412.148.637.618.513 1.06-1.243 5.76-4.915 8.35-8.376 10.7.824.45 1.555.988 2.19 1.615l.043.045c.974.974 1.72 2.162 2.245 3.59.162.44-.044.94-.458 1.11l-.082.03c-2.82.965-5.613 1.191-8.375.678-2.466-.457-4.902-1.503-7.307-3.134l.002.007zm-9.224-22.49v-.009c.14-1.349.208-2.77-.01-4.18a9.464 9.464 0 0 0-1.202-3.422c-.439.44-.882 1.044-1.275 1.74-.548.973-.98 2.105-1.15 3.205a.89.89 0 0 1-.23.475.77.77 0 0 1-1.138-.011l-.563-.608c-2.13-2.312-5.145-5.587-8.354-6.701-.702 3.526.447 7.951 1.26 11.075l.201.784a.904.904 0 0 1-.012.567c-.156.443-.62.668-1.036.502-.98-.395-2.117-.56-3.177-.543-.76.014-1.472.122-2.048.307 1.535 3.101 4.209 4.277 6.7 5.375l.892.397c.156.07.29.193.38.36.223.41.093.937-.291 1.172-.838.518-1.508 1.12-2.01 1.826-.324.455-.58.962-.767 1.522 1.68.12 3.285-.112 4.81-.7 1.648-.636 3.22-1.693 4.706-3.165l-1.161-2.149-5.539-.703c-.44-.056-.758-.484-.705-.955.052-.47.453-.809.894-.753l4.344.552-5.264-9.726c-.22-.41-.088-.935.297-1.17.384-.235.875-.094 1.096.316l5.263 9.726 1.722-4.288c.175-.435.647-.639 1.057-.455.407.186.598.69.426 1.127l-2.199 5.471 1.162 2.146c.583-.192 1.138-.41 1.667-.652.51-.235.996-.492 1.458-.777-.56-2.402-.84-4.936-.208-7.678h.004z"/></mask><path d="M22.27 24c-.405.233-.825.45-1.262.65-.47.215-.96.412-1.466.591a9.6 9.6 0 0 1 .508-.043 9.127 9.127 0 0 1 2.647.26c-.143-.481-.286-.968-.424-1.458h-.003zm-1.873 16.698c-2.369.827-4.56.623-6.565-.614l-.046-.031c-1.916-1.197-3.63-3.339-5.142-6.424-.206-.419-.052-.936.34-1.156a.761.761 0 0 1 .34-.096c3.286-.148 5.896.376 7.83 1.566 2.008 1.237 3.268 3.16 3.782 5.763.084.432-.153.858-.537.992h-.002zm-5.759-2.1c1.386.856 2.9 1.083 4.537.682-.494-1.712-1.433-2.998-2.82-3.852-1.408-.867-3.29-1.32-5.64-1.357 1.195 2.133 2.489 3.634 3.883 4.503l.04.025zm24.58-10.474c.425-.136.875.121 1.003.574.128.454-.113.934-.538 1.07l-7.121 2.3-1.151 3.38c2.32 1.627 4.658 2.657 7.012 3.094 2.237.415 4.499.296 6.782-.358a7.632 7.632 0 0 0-1.479-2.106l-.044-.04c-.821-.814-1.844-1.446-3.07-1.923a.817.817 0 0 1-.4-.338c-.241-.397-.136-.93.236-1.188l1.067-.732c3.09-2.095 6.41-4.349 7.695-9.016-.866-.155-1.95-.135-3.081.058-1.403.238-2.865.742-4.075 1.506a.778.778 0 0 1-.48.114c-.442-.042-.767-.46-.73-.93l.1-1.113c.39-4.345.944-10.544-.864-15.007-4.077 2.185-7.376 7.315-9.69 10.913l-.584.905a.803.803 0 0 1-.408.339c-.42.156-.877-.081-1.024-.53-.464-1.408-1.284-2.793-2.218-3.938-.754-.927-1.571-1.682-2.325-2.157-1.821 4.458-.63 8.462.477 12.185l.371 1.278a.907.907 0 0 1-.008.553c-.15.446-.611.677-1.027.518-1.229-.473-2.396-.69-3.518-.63a6.892 6.892 0 0 0-2.453.603c1.359 2.068 3.02 3.708 4.984 4.917 2.07 1.28 4.486 2.09 7.241 2.431l1.151-3.383-4.078-6.638c-.244-.397-.139-.93.233-1.19.372-.26.872-.148 1.115.249l3.417 5.56 4.883-14.343c.151-.446.613-.674 1.031-.513.418.161.633.654.481 1.1l-4.885 14.346 5.97-1.927.001.007zm-8.37 8.98-3.58 10.514c-.152.446-.614.675-1.032.513-.418-.16-.632-.654-.481-1.1l3.58-10.517c-2.824-.394-5.321-1.259-7.487-2.598-2.364-1.461-4.328-3.475-5.888-6.045a13.698 13.698 0 0 1-2.802 1.483c-2.05.79-4.215 1.02-6.492.686-.44-.063-.747-.496-.689-.966l.009-.054c.222-1.196.657-2.236 1.298-3.136.346-.491.754-.937 1.22-1.347-2.848-1.264-5.824-2.756-7.441-6.863-.168-.428.012-.918.403-1.111.853-.484 2.11-.768 3.453-.793.762-.014 1.56.056 2.333.217-.91-3.524-2.033-8.332-.886-12.203.132-.453.586-.704 1.01-.56 3.694.905 7.006 4.317 9.394 6.9.255-.795.597-1.568.99-2.265.701-1.246 1.581-2.281 2.417-2.82a.77.77 0 0 1 1.06.22c1.139 1.6 1.714 3.252 1.964 4.885.044.29.078.58.105.867a.754.754 0 0 1 .437.043c1.157.477 2.478 1.57 3.63 2.977.732.894 1.402 1.93 1.923 3.02 2.546-3.954 6.175-9.436 10.864-11.509.41-.181.88.025 1.05.462 2.315 4.799 1.8 11.449 1.376 16.2a13.48 13.48 0 0 1 3.295-.998c1.729-.294 3.4-.227 4.572.197.412.148.637.618.513 1.06-1.243 5.76-4.915 8.35-8.376 10.7.824.45 1.555.988 2.19 1.615l.043.045c.974.974 1.72 2.162 2.245 3.59.162.44-.044.94-.458 1.11l-.082.03c-2.82.965-5.613 1.191-8.375.678-2.466-.457-4.902-1.503-7.307-3.134l.002.007zm-9.224-22.49v-.009c.14-1.349.208-2.77-.01-4.18a9.464 9.464 0 0 0-1.202-3.422c-.439.44-.882 1.044-1.275 1.74-.548.973-.98 2.105-1.15 3.205a.89.89 0 0 1-.23.475.77.77 0 0 1-1.138-.011l-.563-.608c-2.13-2.312-5.145-5.587-8.354-6.701-.702 3.526.447 7.951 1.26 11.075l.201.784a.904.904 0 0 1-.012.567c-.156.443-.62.668-1.036.502-.98-.395-2.117-.56-3.177-.543-.76.014-1.472.122-2.048.307 1.535 3.101 4.209 4.277 6.7 5.375l.892.397c.156.07.29.193.38.36.223.41.093.937-.291 1.172-.838.518-1.508 1.12-2.01 1.826-.324.455-.58.962-.767 1.522 1.68.12 3.285-.112 4.81-.7 1.648-.636 3.22-1.693 4.706-3.165l-1.161-2.149-5.539-.703c-.44-.056-.758-.484-.705-.955.052-.47.453-.809.894-.753l4.344.552-5.264-9.726c-.22-.41-.088-.935.297-1.17.384-.235.875-.094 1.096.316l5.263 9.726 1.722-4.288c.175-.435.647-.639 1.057-.455.407.186.598.69.426 1.127l-2.199 5.471 1.162 2.146c.583-.192 1.138-.41 1.667-.652.51-.235.996-.492 1.458-.777-.56-2.402-.84-4.936-.208-7.678h.004z" fill="#FF6667"/><path d="M22.27 24c-.405.233-.825.45-1.262.65-.47.215-.96.412-1.466.591a9.6 9.6 0 0 1 .508-.043 9.127 9.127 0 0 1 2.647.26c-.143-.481-.286-.968-.424-1.458h-.003zm-1.873 16.698c-2.369.827-4.56.623-6.565-.614l-.046-.031c-1.916-1.197-3.63-3.339-5.142-6.424-.206-.419-.052-.936.34-1.156a.761.761 0 0 1 .34-.096c3.286-.148 5.896.376 7.83 1.566 2.008 1.237 3.268 3.16 3.782 5.763.084.432-.153.858-.537.992h-.002zm-5.759-2.1c1.386.856 2.9 1.083 4.537.682-.494-1.712-1.433-2.998-2.82-3.852-1.408-.867-3.29-1.32-5.64-1.357 1.195 2.133 2.489 3.634 3.883 4.503l.04.025zm24.58-10.474c.425-.136.875.121 1.003.574.128.454-.113.934-.538 1.07l-7.121 2.3-1.151 3.38c2.32 1.627 4.658 2.657 7.012 3.094 2.237.415 4.499.296 6.782-.358a7.632 7.632 0 0 0-1.479-2.106l-.044-.04c-.821-.814-1.844-1.446-3.07-1.923a.817.817 0 0 1-.4-.338c-.241-.397-.136-.93.236-1.188l1.067-.732c3.09-2.095 6.41-4.349 7.695-9.016-.866-.155-1.95-.135-3.081.058-1.403.238-2.865.742-4.075 1.506a.778.778 0 0 1-.48.114c-.442-.042-.767-.46-.73-.93l.1-1.113c.39-4.345.944-10.544-.864-15.007-4.077 2.185-7.376 7.315-9.69 10.913l-.584.905a.803.803 0 0 1-.408.339c-.42.156-.877-.081-1.024-.53-.464-1.408-1.284-2.793-2.218-3.938-.754-.927-1.571-1.682-2.325-2.157-1.821 4.458-.63 8.462.477 12.185l.371 1.278a.907.907 0 0 1-.008.553c-.15.446-.611.677-1.027.518-1.229-.473-2.396-.69-3.518-.63a6.892 6.892 0 0 0-2.453.603c1.359 2.068 3.02 3.708 4.984 4.917 2.07 1.28 4.486 2.09 7.241 2.431l1.151-3.383-4.078-6.638c-.244-.397-.139-.93.233-1.19.372-.26.872-.148 1.115.249l3.417 5.56 4.883-14.343c.151-.446.613-.674 1.031-.513.418.161.633.654.481 1.1l-4.885 14.346 5.97-1.927.001.007zm-8.37 8.98-3.58 10.514c-.152.446-.614.675-1.032.513-.418-.16-.632-.654-.481-1.1l3.58-10.517c-2.824-.394-5.321-1.259-7.487-2.598-2.364-1.461-4.328-3.475-5.888-6.045a13.698 13.698 0 0 1-2.802 1.483c-2.05.79-4.215 1.02-6.492.686-.44-.063-.747-.496-.689-.966l.009-.054c.222-1.196.657-2.236 1.298-3.136.346-.491.754-.937 1.22-1.347-2.848-1.264-5.824-2.756-7.441-6.863-.168-.428.012-.918.403-1.111.853-.484 2.11-.768 3.453-.793.762-.014 1.56.056 2.333.217-.91-3.524-2.033-8.332-.886-12.203.132-.453.586-.704 1.01-.56 3.694.905 7.006 4.317 9.394 6.9.255-.795.597-1.568.99-2.265.701-1.246 1.581-2.281 2.417-2.82a.77.77 0 0 1 1.06.22c1.139 1.6 1.714 3.252 1.964 4.885.044.29.078.58.105.867a.754.754 0 0 1 .437.043c1.157.477 2.478 1.57 3.63 2.977.732.894 1.402 1.93 1.923 3.02 2.546-3.954 6.175-9.436 10.864-11.509.41-.181.88.025 1.05.462 2.315 4.799 1.8 11.449 1.376 16.2a13.48 13.48 0 0 1 3.295-.998c1.729-.294 3.4-.227 4.572.197.412.148.637.618.513 1.06-1.243 5.76-4.915 8.35-8.376 10.7.824.45 1.555.988 2.19 1.615l.043.045c.974.974 1.72 2.162 2.245 3.59.162.44-.044.94-.458 1.11l-.082.03c-2.82.965-5.613 1.191-8.375.678-2.466-.457-4.902-1.503-7.307-3.134l.002.007zm-9.224-22.49v-.009c.14-1.349.208-2.77-.01-4.18a9.464 9.464 0 0 0-1.202-3.422c-.439.44-.882 1.044-1.275 1.74-.548.973-.98 2.105-1.15 3.205a.89.89 0 0 1-.23.475.77.77 0 0 1-1.138-.011l-.563-.608c-2.13-2.312-5.145-5.587-8.354-6.701-.702 3.526.447 7.951 1.26 11.075l.201.784a.904.904 0 0 1-.012.567c-.156.443-.62.668-1.036.502-.98-.395-2.117-.56-3.177-.543-.76.014-1.472.122-2.048.307 1.535 3.101 4.209 4.277 6.7 5.375l.892.397c.156.07.29.193.38.36.223.41.093.937-.291 1.172-.838.518-1.508 1.12-2.01 1.826-.324.455-.58.962-.767 1.522 1.68.12 3.285-.112 4.81-.7 1.648-.636 3.22-1.693 4.706-3.165l-1.161-2.149-5.539-.703c-.44-.056-.758-.484-.705-.955.052-.47.453-.809.894-.753l4.344.552-5.264-9.726c-.22-.41-.088-.935.297-1.17.384-.235.875-.094 1.096.316l5.263 9.726 1.722-4.288c.175-.435.647-.639 1.057-.455.407.186.598.69.426 1.127l-2.199 5.471 1.162 2.146c.583-.192 1.138-.41 1.667-.652.51-.235.996-.492 1.458-.777-.56-2.402-.84-4.936-.208-7.678h.004z" stroke="#FF6667" stroke-width="1.4" mask="url(#a)"/></svg>