<svg width="52" height="52" fill="none" xmlns="http://www.w3.org/2000/svg"><path fill="#fff" d="M0 0h52v52H0z"/><path d="M47.086 5.257 46.829 5c-1.972-1.971-4.458-3-7.115-3a9.854 9.854 0 0 0-7.028 2.914L13.057 24.457c-1.628 1.629-2.486 3.772-2.486 6.086v3.343l-7.028 7.028C2.6 41.857 2 43.143 2 44.514v.343C2 47.686 4.314 50 7.143 50H7.4c1.371 0 2.657-.514 3.6-1.543l7.029-7.028h3.342c2.315 0 4.458-.858 6.086-2.486L47 19.4c1.971-1.971 3-4.457 3-7.114a9.854 9.854 0 0 0-2.914-7.029zm-2.4 11.657L44 17.6l-4.8-4.8c-.686-.686-1.714-.686-2.4 0-.686.686-.686 1.714 0 2.4l4.8 4.8-2.743 2.743-4.8-4.8c-.686-.686-1.714-.686-2.4 0-.686.686-.686 1.714 0 2.4l4.8 4.8-2.743 2.743-4.8-4.8c-.685-.686-1.714-.686-2.4 0-.685.685-.685 1.714 0 2.4l4.8 4.8-2.743 2.743-4.8-4.8c-.685-.686-1.714-.686-2.4 0-.685.685-.685 1.714 0 2.4l4.8 4.8-1.028 1.028C24.2 37.4 22.829 38 21.543 38h-4.114c-.429 0-.858.171-1.2.514l-7.543 7.543a1.692 1.692 0 0 1-1.2.514h-.343a1.72 1.72 0 0 1-1.714-1.714V44.6c0-.429.171-.857.514-1.2l7.543-7.543c.343-.428.514-.857.514-1.286v-4.028c0-1.372.514-2.657 1.543-3.6L35.086 7.4c1.2-1.286 2.914-1.971 4.628-1.971 1.715 0 3.429.685 4.629 1.885l.257.257a6.692 6.692 0 0 1 1.971 4.715c0 1.714-.685 3.428-1.885 4.628z" fill="#FF6667"/></svg>