<svg width="127" height="126" fill="none" xmlns="http://www.w3.org/2000/svg"><path fill-rule="evenodd" clip-rule="evenodd" d="M44.748 21.268c-3.022 2.99-3.262 3.89-2.831 10.599.527 8.182 3.886 14.333 9.673 17.715 5.923 3.461 8.257-1.269 2.744-5.558-8.03-6.249-9.113-20.057-1.572-20.057 3.426 0 5.565 4.614 7.362 15.879l1.679 10.51-4.007 1.655c-2.799 1.157-4.81 3.294-6.676 7.095l-2.673 5.438-8.505-.007c-12.116-.01-17.555-1.693-17.555-5.437 0-2.042 1.203-3.67 3.92-5.31 5.008-3.02 8.511-2.99 15.027.132 8.78 4.204 11.894.694 4.049-4.565-8.32-5.576-18.553-4.962-25.093 1.508-3.548 3.51-4.03 4.694-3.705 9.096.321 4.352.965 5.404 4.595 7.504 3.45 1.994 6.322 2.443 15.684 2.446l11.462.004 2.449 4.177c3.076 5.249 9.902 7.83 16.395 6.201 3.763-.943 4.296-.825 3.851.857-.283 1.073.327 3.55 1.356 5.503 1.03 1.952 1.875 4.955 1.88 6.671.01 4.392-4.303 9.411-8.09 9.411 0 0-2.7 0-2.999-1.194-.299-1.193.727-7.775.727-7.775.7-7.631.532-9.079-1.121-9.707-3.2-1.213-4.32 1.174-5.053 10.773-.826 10.806.883 13.87 7.742 13.87 11.674 0 18.016-11.534 12.984-23.609-1.017-2.44-2.69-5.066-3.718-5.835-1.645-1.228-1.55-1.566.783-2.8 2.365-1.254 3.257-.828 8.243 3.944 6.49 6.212 9.64 8.011 14.016 8.011 13.443 0 17.596-18.004 5.813-25.208-4.868-2.975-16.906-4.343-20.675-2.347-2.177 1.153-2.613 1.063-2.613-.54 0-3.212-6.685-8.902-10.463-8.906-3.39-.004-3.412-.054-3.576-8.056C65.92 27.016 61.024 18 52.487 18c-3.225 0-5.337.892-7.739 3.268zm36.08 8.014c-8.458 5.015-14.858 20.344-8.495 20.344 1.586 0 2.8-1.452 3.943-4.721 1.717-4.905 5.434-9.562 9.26-11.602 3.097-1.65 8.031-.207 8.031 2.35 0 3.066-6.56 10.422-10.87 12.188-2.75 1.127-3.634 2.19-3.363 4.043C80.542 60.166 99.6 44.918 99.6 35.671c0-4.799-4.81-9.32-9.9-9.306-2.186.007-6.179 1.319-8.873 2.917zm-8.675 30.237c3.085 2.652 2.65 8.18-.918 11.711-4.28 4.233-12.354 3.728-14.99-.937-1.628-2.88-1.601-3.63.263-7.496 3.134-6.504 10.176-7.98 15.645-3.278zm18.503 6.725c6.241.137 8.183.686 10.698 3.023 5.169 4.805 2.885 13.179-3.594 13.179-3.836 0-17.267-11.816-17.377-15.287-.055-1.763.406-2.455 1.28-1.92.752.46 4.798.912 8.993 1.005zm-49.57 10.388c-9.692 5.311-17.493 13.388-17.493 18.111 0 6.804 13.332 9.302 21.926 4.107 5.948-3.596 9.664-8.537 9.873-13.132.25-5.505-3.412-5.9-5.647-.61-2.689 6.368-8.478 10.466-14.783 10.466-2.936 0-5.336-.47-5.336-1.042 0-1.86 10.888-11.027 15.232-12.822 2.87-1.187 4.102-2.404 3.835-3.788-.472-2.46-4.29-3.108-7.606-1.29z" fill="#FFA319"/></svg>