<svg width="127" height="126" fill="none" xmlns="http://www.w3.org/2000/svg"><g stroke="#FFA319" stroke-width="6" stroke-miterlimit="10" stroke-linecap="round" stroke-linejoin="round"><path d="M15.072 59.219c8.176-3.864 17.146-5.959 26.237-6.178 2.742-.086 5.678-.03 8.067-1.264 2.053-1.183 3.47-3.127 4.94-4.735 4.746-4.876 12.513-6.954 18.984-5.214"/><path d="M51.034 50.914c2.823 5.928 7.08 11.115 12.47 14.747M33.763 56.761c.968 3.98 1.936 7.961 3.099 12.084"/><path d="M62.621 65.287c-3.243 5.674-.634 13.53 3.092 18.628 4.362 5.86 12.332 11.67 19.937 11.856 4.67.13 9.873-2.925 10.338-7.647.251-2.794-1.231-5.661-2.661-8.192-3.054-5.204-6.922-10.107-12.065-13.261-5.338-3.296-13.826-4.721-18.325.633M78.252 42.398c-3.911 2.507-3.777 8.856-.792 12.521 2.985 3.665 7.865 5.138 12.498 6.134 6.03 1.121 15.299-.16 13.84-8.368-.526-3.36-2.823-5.928-5.208-7.965-5.496-4.304-15.22-8.118-21.115-2.89M35.533 70.257c-4.393 6.027 7.328 25.885 19.53 27.933 2.122.356 4.953-.26 6.034-2.15 1.7-2.334.696-5.448-.256-8.226-1.799-4.883-4.27-9.662-8.12-13.363-3.852-3.7-9.368-5.936-14.357-4.81"/></g></svg>