<svg width="127" height="126" fill="none" xmlns="http://www.w3.org/2000/svg"><path d="M58.45 50.234c3.539-3.255 2.328-9.671-1.49-12.647-3.82-2.976-9.128-3.068-13.878-1.86-13.785 3.534-23.192 17.576-24.03 31.803-.373 6.789 1.21 14.32 6.706 18.32 4.377 3.161 10.431 3.44 15.554 1.673 5.123-1.766 9.407-5.393 13.133-9.392.465 3.255 2.7 6.324 5.774 7.532 3.074 1.302 6.893.559 9.128-1.86 2.794-3.068 2.329-8.554-.931-11.065-3.353-2.511-8.755-1.581-10.99 1.953-2.236 3.533-.84 8.834 2.886 10.787 3.82 1.952 8.663.279 11.55-2.79 2.887-3.069 4.284-7.347 5.402-11.438-5.495 2.697-5.961 11.252-1.677 15.622 4.285 4.371 11.363 4.929 17.138 2.976C98.5 87.895 103.343 83.804 108 79.805" stroke="#FFA319" stroke-width="6" stroke-miterlimit="10" stroke-linecap="round" stroke-linejoin="round"/></svg>