<svg width="127" height="126" fill="none" xmlns="http://www.w3.org/2000/svg"><g stroke="#FFA319" stroke-width="6" stroke-miterlimit="10" stroke-linecap="round" stroke-linejoin="round"><path d="M18.2 34.78c7.755-5.73 22.174-8.18 30.147-2.746 9.83 6.719 11.906 19.267 19.278 28.21M67.734 62.022c4.478 10.869 4.86 23.072 1.092 34.138 5.461-5.78 8.465-13.388 8.247-20.996 4.805.79 9.064 2.144 13.87 2.934-1.801-4.926-2.788-8.103-.986-11.166 3.252-5.348 11.071-9.587 15.841-13.556-11.414 4.15-24.029 5.682-36.262 4.397"/><path d="M77.345 78.77c3.66 4.397 4.074 9.37 13.926 13.461 9.852 4.09 18.391-6.58 15.435-13.461-2.955-6.882-10.028-14.278-10.028-14.278M18.693 35.443c6.39-.494 12.998 1.828 17.367 6.126 4.369 4.298 6.444 10.375 5.406 16.155M42.996 59.008c-4.697 1.285-7.7 5.583-8.684 9.93-2.01 8.422 1.89 15.123-4.453 22.296 4.915-6.373 7.18-10.043 9.038-17.651 0 0 4.972 6.67 6.83 9.436 1.638-3.557 2.626-11.215 2.626-11.215 4.479 5.287 6.263 5.68 13.362 7.608-6.28-7.905-9.545-19.169-16.972-20.157"/><path d="M37.371 84.6c.71 2.372 1.42 4.792 2.895 6.818 1.529 2.025 3.986 3.656 6.717 3.557 3.386-.099 6.116-2.816 7.045-5.78.928-2.964.437-6.077 0-9.14"/></g></svg>