<svg width="127" height="126" fill="none" xmlns="http://www.w3.org/2000/svg"><g clip-path="url(#a)"><path d="M98.756 95.882c-4.512-2.222-7.818-6.234-11.142-9.967-3.35-3.764-7.208-7.449-12.07-8.578-5.933-1.396-12.052 1.297-18.162 1.313-5.943.026-11.77-2.561-16.249-6.539-4.48-3.977-7.65-9.207-9.82-14.789-3.287-8.529-4.282-17.967-2.797-26.962.229-1.351.55-2.837 1.668-3.711.825-.671 1.95-.82 2.99-.947 8.717-1.043 17.796-.835 25.982 2.355 8.185 3.19 15.403 9.634 17.942 18.086 1.74 5.749 1.22 11.963 2.11 17.935.87 5.831 3.148 11.476 6.54 16.302 4.106 5.822 9.716 10.431 15.806 14.096-.981.493-1.962.987-2.969 1.45" stroke="#FFA319" stroke-width="6" stroke-miterlimit="10" stroke-linecap="round" stroke-linejoin="round"/></g><defs><clipPath id="a"><path fill="#fff" transform="translate(.6)" d="M0 0h126v126H0z"/></clipPath></defs></svg>