<svg width="127" height="126" fill="none" xmlns="http://www.w3.org/2000/svg"><g stroke="#FFA319" stroke-width="6" stroke-miterlimit="10" stroke-linejoin="round"><path d="M17.323 56.364c.316-.751.711-1.463 1.146-2.095 4.19-6.324 9.181-9.894 20.158-6.443 10.976 3.451 20.593 23.28 29.044 30.276-9.908 0-14.262-4.031-20.744-6.996a64.588 64.588 0 0 0-.949 15.613c-6.047-.83-11.699-3.953-15.652-8.617-1.067 3.123-2.173 6.325-4.07 9.052-1.898 2.766-4.704 5.02-7.985 5.494 1.067-4.23.672-8.656-.079-12.965-1.304-7.51-4.15-15.928-.87-23.32zM62.54 57.313c1.225 2.845 3.043 5.454 5.138 7.786 3.083 3.439 6.799 6.126 10.435 8.933 1.739 1.344 3.399 2.806 4.861 4.427.87.988 3.637 3.794 3.479 5.217.513-5.178-1.463-10.514-5.218-14.11 6.087 1.699 12.49 2.292 18.775 1.699 0-4.585-2.49-8.893-5.85-12.016-3.36-3.122-7.47-5.296-11.541-7.39 8.735.75 17.944 1.383 25.77-2.53-4.506-3.004-9.051-6.008-13.557-9.012 5.81.79 11.937-1.383 15.968-5.613-7.114-.237-14.229-.316-21.304-.316-6.443 0-13.36-1.304-19.604.87-5.297 1.857-8.34 6.996-8.933 12.371-.395 3.4.277 6.68 1.58 9.684z"/></g></svg>