<svg xmlns="http://www.w3.org/2000/svg" width="175" height="31" fill="none"><path fill="#fff" fill-rule="evenodd" d="M38.942.001v11.931H27.29V.038h-5.771v29.85h5.716V17.003h11.651V29.87h5.789V0l-5.733.001Zm59.762 30.034h5.165V.095h-5.165v29.94ZM53.79 17.265a5.01 5.01 0 0 1 2.557-4.4c1.433-.857 3.639-.782 5.016.149.642.39 1.287 1.026 1.653 1.697.442.765.644 1.622.662 2.555H53.79Zm13.198-5.34A11.334 11.334 0 0 0 54.93 8.998c-3.069 1.006-5.954 3.953-6.91 7.066-1.36 4.009-.295 8.465 2.573 11.43 2.278 2.312 5.07 3.45 8.306 3.45 4.392 0 8.692-2.91 10.293-7.067h-6.378c-.514.838-1.36 1.585-2.242 1.939-1.801.765-4.044.317-5.367-1.194-.808-.913-1.248-2.013-1.213-3.244h15.898c.312-1.92.053-3.972-.57-5.686a12.25 12.25 0 0 0-2.334-3.767Zm12.531 5.64a4.895 4.895 0 0 1 2.739-4.513c1.635-.895 4.005-.58 5.402.67a5.336 5.336 0 0 1 1.324 1.79c.256.635.403 1.326.387 2.052h-9.852Zm5.202-9.137c-.037-.018-.074.019-.093 0-4.63-.15-9.133 2.89-10.732 7.271-1.322 3.282-.809 7.608 1.25 10.404 2.756 3.953 7.332 5.65 11.945 4.586 3.272-.69 6.562-3.504 7.792-6.73h-6.396c-.35.615-.955 1.212-1.545 1.585-1.34.913-3.453.95-4.832.113-1.524-.896-2.48-2.48-2.408-4.233h15.86c.442-2.76-.202-5.445-1.524-7.644-2.134-3.32-5.532-5.26-9.318-5.352ZM0 17.172l11.651.037c.846-.017 1.69 0 2.536-.017l1.8-5.072H1.785L0 17.172ZM120.799 30.206h-3.691V8.928h3.691v9.42h.062a245.68 245.68 0 0 1 3.906-4.45l4.522-4.972h4.767l-9.658 9.97 10.52 11.31h-5.137l-5.567-6.31c-.769-.854-2.092-2.5-3.353-4.116h-.062v10.425Zm16.733 0h3.537V14.598h-3.537v15.607Zm-.093-18.505h3.69V8.136h-3.69v3.566Zm11.196 10.731c0 3.08 1.6 5.366 4.06 5.366 2.492 0 4.243-2.349 4.243-5.335 0-3.14-1.72-5.458-4.243-5.458-2.429 0-4.06 2.318-4.06 5.427Zm11.718 3.08c0 1.646.032 3.382.155 4.694h-3.23a34.312 34.312 0 0 1-.092-2.714h-.061c-1.17 1.982-2.862 3.08-5.292 3.08-4.243 0-6.888-3.202-6.888-8.109 0-4.847 2.767-8.232 6.919-8.232 2.339 0 4.061 1.067 5.045 2.743h.061a78.723 78.723 0 0 1-.092-4.114V7.159h3.476V25.51h-.001Zm3.939 1.37c1.353.701 2.799 1.037 4.12 1.037 1.539 0 2.769-.671 2.769-1.92 0-1.159-.707-1.677-3.168-2.682-2.829-1.16-3.906-2.287-3.906-4.42 0-2.898 2.368-4.666 5.875-4.666 1.506 0 2.89.245 3.967.671l-.307 2.743c-1.23-.578-2.369-.822-3.568-.822-1.416 0-2.491.64-2.491 1.798 0 1.16.768 1.616 2.891 2.409 2.86 1.098 4.244 2.316 4.244 4.694 0 3.17-2.522 4.848-6.089 4.848-1.662 0-3.108-.244-4.553-.793l.216-2.896Z" clip-rule="evenodd"/></svg>